# xmcd CD database file
#
# Track frame offsets:
#	182
#	15765
#	35960
#	50557
#	61657
#	77142
#	98545
#	112427
#	127685
#	139197
#	153217
#	168205
#	183132
#	204175
#	220485
#
# Disc length: 3510 seconds
#
# Revision: 2
# Processed by: cddbd v1.5.2PL0 Copyright (c) Steve Scherf et al.
# Submitted via: CDex 1.70beta2
#
DISCID=be0db40f
DTITLE=Big Bill Broonzy - Big Bill Blues
DYEAR=1900
DGENRE=Blues
TTITLE0=Big Bill Blues
TTITLE1=Louise, Louise Blues
TTITLE2=Lonesome Road Blues
TTITLE3=Baby, Please Don't Go
TTITLE4=Guitar Shuffle
TTITLE5=In The Evening
TTITLE6=Down By The Riverside
TTITLE7=John Henry
TTITLE8=Willie Mae Blues
TTITLE9=Black, Brown and White
TTITLE10=How Long Blues
TTITLE11=House Rent Stomp
TTITLE12=Back Water Blues
TTITLE13=Blues In 1890
TTITLE14=Hollerin' And Cryin' The Blues
EXTD=
EXTT0=
EXTT1=
EXTT2=
EXTT3=
EXTT4=
EXTT5=
EXTT6=
EXTT7=
EXTT8=
EXTT9=
EXTT10=
EXTT11=
EXTT12=
EXTT13=
EXTT14=
PLAYORDER=
